<svg version="1.1" viewBox="0 0 4000 4000" xmlns="http://www.w3.org/2000/svg">
<g transform="translate(300,500)"><rect id="A340" width="100" height="200" fill="transparent" stroke-width="2" stroke="black"/><svg width="100" height="200"> <text x="50%" y="50%" dominant-baseline="central" text-anchor="middle">A340</text></svg></g>
<g transform="translate(400,500)"><rect id="A341" width="200" height="200" fill="transparent" stroke-width="2" stroke="black"/><svg width="200" height="200"> <text x="50%" y="50%" dominant-baseline="central" text-anchor="middle">A341</text></svg></g>
<g transform="translate(600,500)"><rect id="A341" width="100" height="200" fill="transparent" stroke-width="2" stroke="black"/><svg width="100" height="200"> <text x="50%" y="50%" dominant-baseline="central" text-anchor="middle">A341</text></svg></g>
<g transform="translate(700,500)"><rect id="A342" width="200" height="200" fill="transparent" stroke-width="2" stroke="black"/><svg width="200" height="200"> <text x="50%" y="50%" dominant-baseline="central" text-anchor="middle">A342</text></svg></g>
<g transform="translate(900,500)"><rect id="A343" width="100" height="200" fill="transparent" stroke-width="2" stroke="black"/><svg width="100" height="200"> <text x="50%" y="50%" dominant-baseline="central" text-anchor="middle">A343</text></svg></g>
<g transform="translate(1000,500)"><rect id="A344" width="200" height="200" fill="transparent" stroke-width="2" stroke="black"/><svg width="200" height="200"> <text x="50%" y="50%" dominant-baseline="central" text-anchor="middle">A344</text></svg></g>
<g transform="translate(1200,500)"><rect id="A345" width="100" height="200" fill="transparent" stroke-width="2" stroke="black"/><svg width="100" height="200"> <text x="50%" y="50%" dominant-baseline="central" text-anchor="middle">A345</text></svg></g>
<g transform="translate(1300,500)"><rect id="A346" width="200" height="200" fill="transparent" stroke-width="2" stroke="black"/><svg width="200" height="200"> <text x="50%" y="50%" dominant-baseline="central" text-anchor="middle">A346</text></svg></g>
<g transform="translate(1500,500)"><rect id="A347" width="100" height="200" fill="transparent" stroke-width="2" stroke="black"/><svg width="100" height="200"> <text x="50%" y="50%" dominant-baseline="central" text-anchor="middle">A347</text></svg></g>
<g transform="translate(1600,500)"><rect id="A348" width="200" height="200" fill="transparent" stroke-width="2" stroke="black"/><svg width="200" height="200"> <text x="50%" y="50%" dominant-baseline="central" text-anchor="middle">A348</text></svg></g>
<g transform="translate(1800,500)"><rect id="" width="50" height="200" fill="transparent" stroke-width="2" stroke="black"/><svg width="50" height="200"> <text x="50%" y="50%" dominant-baseline="central" text-anchor="middle"></text></svg></g>
<g transform="translate(1850,300)"><rect id="A309" width="200" height="200" fill="transparent" stroke-width="2" stroke="black"/><svg width="200" height="200"> <text x="50%" y="50%" dominant-baseline="central" text-anchor="middle">A309</text></svg></g>
<g transform="translate(2050,300)"><rect id="A310" width="100" height="200" fill="transparent" stroke-width="2" stroke="black"/><svg width="100" height="200"> <text x="50%" y="50%" dominant-baseline="central" text-anchor="middle">A310</text></svg></g>
<g transform="translate(2150,300)"><rect id="A311" width="200" height="200" fill="transparent" stroke-width="2" stroke="black"/><svg width="200" height="200"> <text x="50%" y="50%" dominant-baseline="central" text-anchor="middle">A311</text></svg></g>
<g transform="translate(2350,300)"><rect id="A312" width="100" height="200" fill="transparent" stroke-width="2" stroke="black"/><svg width="100" height="200"> <text x="50%" y="50%" dominant-baseline="central" text-anchor="middle">A312</text></svg></g>
<g transform="translate(2450,300)"><rect id="A313" width="200" height="200" fill="transparent" stroke-width="2" stroke="black"/><svg width="200" height="200"> <text x="50%" y="50%" dominant-baseline="central" text-anchor="middle">A313</text></svg></g>
<g transform="translate(2650,300)"><rect id="A314" width="300" height="200" fill="transparent" stroke-width="2" stroke="black"/><svg width="300" height="200"> <text x="50%" y="50%" dominant-baseline="central" text-anchor="middle">A314</text></svg></g>
<g transform="translate(2950,300)"><rect id="A315" width="200" height="200" fill="transparent" stroke-width="2" stroke="black"/><svg width="200" height="200"> <text x="50%" y="50%" dominant-baseline="central" text-anchor="middle">A315</text></svg></g>
<g transform="translate(3150,300)"><rect id="A316" width="200" height="200" fill="transparent" stroke-width="2" stroke="black"/><svg width="200" height="200"> <text x="50%" y="50%" dominant-baseline="central" text-anchor="middle">A316</text></svg></g>
<g transform="translate(2050,550)"><rect id="A307" width="200" height="150" fill="transparent" stroke-width="2" stroke="black"/><svg width="200" height="150"> <text x="50%" y="50%" dominant-baseline="central" text-anchor="middle">A307</text></svg></g>
<g transform="translate(2350,550)"><rect id="A318" width="300" height="150" fill="transparent" stroke-width="2" stroke="black"/><svg width="300" height="150"> <text x="50%" y="50%" dominant-baseline="central" text-anchor="middle">A318</text></svg></g>
<g transform="translate(2650,550)"><rect id="A319" width="300" height="150" fill="transparent" stroke-width="2" stroke="black"/><svg width="300" height="150"> <text x="50%" y="50%" dominant-baseline="central" text-anchor="middle">A319</text></svg></g>
<g transform="translate(100,500)"><rect id="A339" width="200" height="250" fill="transparent" stroke-width="2" stroke="black"/><svg width="200" height="250"> <text x="50%" y="50%" dominant-baseline="central" text-anchor="middle">A339</text></svg></g>
<g transform="translate(100,750)"><rect id="A338" width="300" height="200" fill="transparent" stroke-width="2" stroke="black"/><svg width="300" height="200"> <text x="50%" y="50%" dominant-baseline="central" text-anchor="middle">A338</text></svg></g>
<g transform="translate(400,750)"><rect id="A337" width="100" height="200" fill="transparent" stroke-width="2" stroke="black"/><svg width="100" height="200"> <text x="50%" y="50%" dominant-baseline="central" text-anchor="middle">A337</text></svg></g>
<g transform="translate(500,750)"><rect id="A336" width="200" height="200" fill="transparent" stroke-width="2" stroke="black"/><svg width="200" height="200"> <text x="50%" y="50%" dominant-baseline="central" text-anchor="middle">A336</text></svg></g>
<g transform="translate(700,750)"><rect id="A335" width="200" height="200" fill="transparent" stroke-width="2" stroke="black"/><svg width="200" height="200"> <text x="50%" y="50%" dominant-baseline="central" text-anchor="middle">A335</text></svg></g>
</svg>
