<svg version="1.1" viewBox="0 0 4000 4000" xmlns="http://www.w3.org/2000/svg">
<g transform="translate(300,500)"><rect id="A140" width="100" height="200" fill="transparent" stroke-width="2" stroke="black"/><svg width="100" height="200"> <text x="50%" y="50%" dominant-baseline="central" text-anchor="middle">A140</text></svg></g>
<g transform="translate(400,500)"><rect id="A141" width="200" height="200" fill="transparent" stroke-width="2" stroke="black"/><svg width="200" height="200"> <text x="50%" y="50%" dominant-baseline="central" text-anchor="middle">A141</text></svg></g>
<g transform="translate(600,500)"><rect id="A141" width="100" height="200" fill="transparent" stroke-width="2" stroke="black"/><svg width="100" height="200"> <text x="50%" y="50%" dominant-baseline="central" text-anchor="middle">A141</text></svg></g>
<g transform="translate(700,500)"><rect id="A142" width="200" height="200" fill="transparent" stroke-width="2" stroke="black"/><svg width="200" height="200"> <text x="50%" y="50%" dominant-baseline="central" text-anchor="middle">A142</text></svg></g>
<g transform="translate(900,500)"><rect id="A143" width="100" height="200" fill="transparent" stroke-width="2" stroke="black"/><svg width="100" height="200"> <text x="50%" y="50%" dominant-baseline="central" text-anchor="middle">A143</text></svg></g>
<g transform="translate(1000,500)"><rect id="A144" width="200" height="200" fill="transparent" stroke-width="2" stroke="black"/><svg width="200" height="200"> <text x="50%" y="50%" dominant-baseline="central" text-anchor="middle">A144</text></svg></g>
<g transform="translate(1200,500)"><rect id="A145" width="100" height="200" fill="transparent" stroke-width="2" stroke="black"/><svg width="100" height="200"> <text x="50%" y="50%" dominant-baseline="central" text-anchor="middle">A145</text></svg></g>
<g transform="translate(1300,500)"><rect id="A146" width="200" height="200" fill="transparent" stroke-width="2" stroke="black"/><svg width="200" height="200"> <text x="50%" y="50%" dominant-baseline="central" text-anchor="middle">A146</text></svg></g>
<g transform="translate(1500,500)"><rect id="A147" width="100" height="200" fill="transparent" stroke-width="2" stroke="black"/><svg width="100" height="200"> <text x="50%" y="50%" dominant-baseline="central" text-anchor="middle">A147</text></svg></g>
<g transform="translate(1600,500)"><rect id="A148" width="200" height="200" fill="transparent" stroke-width="2" stroke="black"/><svg width="200" height="200"> <text x="50%" y="50%" dominant-baseline="central" text-anchor="middle">A148</text></svg></g>
<g transform="translate(1800,500)"><rect id="" width="50" height="200" fill="transparent" stroke-width="2" stroke="black"/><svg width="50" height="200"> <text x="50%" y="50%" dominant-baseline="central" text-anchor="middle"></text></svg></g>
<g transform="translate(1850,300)"><rect id="A109" width="200" height="200" fill="transparent" stroke-width="2" stroke="black"/><svg width="200" height="200"> <text x="50%" y="50%" dominant-baseline="central" text-anchor="middle">A109</text></svg></g>
<g transform="translate(2050,300)"><rect id="A110" width="100" height="200" fill="transparent" stroke-width="2" stroke="black"/><svg width="100" height="200"> <text x="50%" y="50%" dominant-baseline="central" text-anchor="middle">A110</text></svg></g>
<g transform="translate(2150,300)"><rect id="A111" width="200" height="200" fill="transparent" stroke-width="2" stroke="black"/><svg width="200" height="200"> <text x="50%" y="50%" dominant-baseline="central" text-anchor="middle">A111</text></svg></g>
<g transform="translate(2350,300)"><rect id="A112" width="100" height="200" fill="transparent" stroke-width="2" stroke="black"/><svg width="100" height="200"> <text x="50%" y="50%" dominant-baseline="central" text-anchor="middle">A112</text></svg></g>
<g transform="translate(2450,300)"><rect id="A113" width="200" height="200" fill="transparent" stroke-width="2" stroke="black"/><svg width="200" height="200"> <text x="50%" y="50%" dominant-baseline="central" text-anchor="middle">A113</text></svg></g>
<g transform="translate(2650,300)"><rect id="A114" width="300" height="200" fill="transparent" stroke-width="2" stroke="black"/><svg width="300" height="200"> <text x="50%" y="50%" dominant-baseline="central" text-anchor="middle">A114</text></svg></g>
<g transform="translate(2950,300)"><rect id="A115" width="200" height="200" fill="transparent" stroke-width="2" stroke="black"/><svg width="200" height="200"> <text x="50%" y="50%" dominant-baseline="central" text-anchor="middle">A115</text></svg></g>
<g transform="translate(3150,300)"><rect id="A116" width="200" height="200" fill="transparent" stroke-width="2" stroke="black"/><svg width="200" height="200"> <text x="50%" y="50%" dominant-baseline="central" text-anchor="middle">A116</text></svg></g>
<g transform="translate(2050,550)"><rect id="A107" width="200" height="150" fill="transparent" stroke-width="2" stroke="black"/><svg width="200" height="150"> <text x="50%" y="50%" dominant-baseline="central" text-anchor="middle">A107</text></svg></g>
<g transform="translate(2350,550)"><rect id="A118" width="300" height="150" fill="transparent" stroke-width="2" stroke="black"/><svg width="300" height="150"> <text x="50%" y="50%" dominant-baseline="central" text-anchor="middle">A118</text></svg></g>
<g transform="translate(2650,550)"><rect id="A119" width="300" height="150" fill="transparent" stroke-width="2" stroke="black"/><svg width="300" height="150"> <text x="50%" y="50%" dominant-baseline="central" text-anchor="middle">A119</text></svg></g>
<g transform="translate(100,500)"><rect id="A139" width="200" height="250" fill="transparent" stroke-width="2" stroke="black"/><svg width="200" height="250"> <text x="50%" y="50%" dominant-baseline="central" text-anchor="middle">A139</text></svg></g>
<g transform="translate(100,750)"><rect id="A138" width="300" height="200" fill="transparent" stroke-width="2" stroke="black"/><svg width="300" height="200"> <text x="50%" y="50%" dominant-baseline="central" text-anchor="middle">A138</text></svg></g>
<g transform="translate(400,750)"><rect id="A137" width="100" height="200" fill="transparent" stroke-width="2" stroke="black"/><svg width="100" height="200"> <text x="50%" y="50%" dominant-baseline="central" text-anchor="middle">A137</text></svg></g>
<g transform="translate(500,750)"><rect id="A136" width="200" height="200" fill="transparent" stroke-width="2" stroke="black"/><svg width="200" height="200"> <text x="50%" y="50%" dominant-baseline="central" text-anchor="middle">A136</text></svg></g>
<g transform="translate(700,750)"><rect id="A135" width="200" height="200" fill="transparent" stroke-width="2" stroke="black"/><svg width="200" height="200"> <text x="50%" y="50%" dominant-baseline="central" text-anchor="middle">A135</text></svg></g>
</svg>
